<svg id="visual" viewBox="0 0 900 600" width="900" height="600" xmlns="http://www.w3.org/2000/svg" xmlns:xlink="http://www.w3.org/1999/xlink" version="1.1"><rect x="0" y="0" width="900" height="600" fill="#001122"></rect><defs><linearGradient id="grad1_0" x1="33.3%" y1="100%" x2="100%" y2="0%"><stop offset="20%" stop-color="#001122" stop-opacity="1"></stop><stop offset="80%" stop-color="#001122" stop-opacity="1"></stop></linearGradient></defs><defs><linearGradient id="grad2_0" x1="0%" y1="100%" x2="66.7%" y2="0%"><stop offset="20%" stop-color="#001122" stop-opacity="1"></stop><stop offset="80%" stop-color="#001122" stop-opacity="1"></stop></linearGradient></defs><g transform="translate(900, 600)"><path d="M-459.7 0C-450.3 -39.4 -440.9 -78.7 -427.9 -114.7C-414.9 -150.6 -398.2 -183.1 -381.9 -220.5C-365.6 -257.9 -349.6 -300.3 -316.1 -316.1C-282.5 -331.9 -231.4 -321.1 -198 -342.9C-164.6 -364.8 -149 -419.2 -119 -444C-88.9 -468.9 -44.5 -464.3 0 -459.7L0 0Z" fill="#A8A89E"></path></g><g transform="translate(0, 0)"><path d="M459.7 0C432.3 36.6 404.9 73.2 383.5 102.8C362 132.3 346.5 154.9 344.7 199C342.9 243.1 354.7 308.9 325.1 325.1C295.4 341.3 224.2 307.9 185 320.4C145.8 332.9 138.6 391.3 113.1 422.1C87.6 453 43.8 456.3 0 459.7L0 0Z" fill="#A8A89E"></path></g></svg>